<svg xmlns="http://www.w3.org/2000/svg"  viewBox="0 0 64 64" width="128px" height="128px"><path fill="#ed7899" d="M51,58H13c-3.866,0-7-3.134-7-7V13c0-3.866,3.134-7,7-7h38c3.866,0,7,3.134,7,7v38 C58,54.866,54.866,58,51,58z"/><path fill="#8d6c9f" d="M13,6c-3.859,0-7,3.141-7,7v38c0,3.859,3.141,7,7,7h38c3.859,0,7-3.141,7-7V13c0-3.859-3.141-7-7-7 H13z M13,8h38c2.758,0,5,2.242,5,5v38c0,2.758-2.242,5-5,5H13c-2.758,0-5-2.242-5-5V13C8,10.242,10.242,8,13,8z M12,12 c-0.555,0-1,0.445-1,1v2c0,0.555,0.445,1,1,1c0.555,0,1-0.445,1-1v-2C13,12.445,12.555,12,12,12z M17,12c-0.555,0-1,0.445-1,1v2 c0,0.555,0.445,1,1,1s1-0.445,1-1v-2C18,12.445,17.555,12,17,12z M22,12c-0.555,0-1,0.445-1,1v2c0,0.555,0.445,1,1,1s1-0.445,1-1 v-2C23,12.445,22.555,12,22,12z M27,12c-0.555,0-1,0.445-1,1v2c0,0.555,0.445,1,1,1s1-0.445,1-1v-2C28,12.445,27.555,12,27,12z M32,12c-0.555,0-1,0.445-1,1v2c0,0.555,0.445,1,1,1s1-0.445,1-1v-2C33,12.445,32.555,12,32,12z M37,12c-0.555,0-1,0.445-1,1v2 c0,0.555,0.445,1,1,1s1-0.445,1-1v-2C38,12.445,37.555,12,37,12z M42,12c-0.555,0-1,0.445-1,1v2c0,0.555,0.445,1,1,1s1-0.445,1-1 v-2C43,12.445,42.555,12,42,12z M47,12c-0.555,0-1,0.445-1,1v2c0,0.555,0.445,1,1,1s1-0.445,1-1v-2C48,12.445,47.555,12,47,12z M52,12c-0.555,0-1,0.445-1,1v2c0,0.555,0.445,1,1,1s1-0.445,1-1v-2C53,12.445,52.555,12,52,12z"/><path fill="#fff8ee" stroke="#8d6c9f" stroke-linejoin="round" stroke-miterlimit="10" stroke-width="2" d="M35.017 21.035L35.017 35.035 42.017 52.035 42.017 21.035zM21.983 52c2.309-.474 4.646-.901 7.035-1.056V38.035L21.983 21V52zM22.017 21.035l12.527 29.873c2.539.139 5.02.493 7.432 1.031l-12.96-30.904H22.017z"/></svg>